<mxfile host="app.diagrams.net" modified="2020-03-21T14:00:55.697Z" agent="Mozilla/5.0 (Macintosh; Intel Mac OS X 10_15_3) AppleWebKit/537.36 (KHTML, like Gecko) Chrome/80.0.3987.132 Safari/537.36" etag="swpYihjNTVwyIdubgxJS" version="12.8.8" type="github">
  <diagram id="Wuma1OdAQkQ659eAzgwF" name="Page-1">
    <mxGraphModel dx="706" dy="584" grid="1" gridSize="10" guides="1" tooltips="1" connect="1" arrows="1" fold="1" page="1" pageScale="1" pageWidth="827" pageHeight="1169" math="0" shadow="0">
      <root>
        <mxCell id="0" />
        <mxCell id="1" parent="0" />
        <mxCell id="E0IjVI45BpILvnkrQart-1" value="Object" style="html=1;" vertex="1" parent="1">
          <mxGeometry x="80" y="120" width="110" height="50" as="geometry" />
        </mxCell>
      </root>
    </mxGraphModel>
  </diagram>
</mxfile>
